<?xml version="1.0" ?><!DOCTYPE svg  PUBLIC '-//W3C//DTD SVG 1.1//EN'  'http://www.w3.org/Graphics/SVG/1.1/DTD/svg11.dtd'><svg height="512px" style="enable-background:new 0 0 512 512;" version="1.1" viewBox="0 0 512 512" width="512px" xml:space="preserve" xmlns="http://www.w3.org/2000/svg" xmlns:xlink="http://www.w3.org/1999/xlink"><g id="_x38_9-digital-ocean"><g><path d="M99.288,465.409h68.353v-68.257H99.288V465.409z M42.157,340.021v57.132h57.131v-57.132H42.157z     M474.53,182.632c-21.331-68.815-76.421-123.628-145.237-145.236C171.536-11.852,26.02,105.47,26.02,255.901h88.85    c0-94.414,93.671-167.404,193.001-131.419c36.817,13.262,66.31,42.755,79.574,79.481c36.261,99.238-36.821,192.722-131.142,192.91    v0.279h-0.277v88.847C406.827,485.999,523.871,340.577,474.53,182.632L474.53,182.632z M256.303,396.873v-88.388h-88.663v88.667    h88.385v-0.279H256.303z" style="fill:#0080FF;"/></g></g><g id="Layer_1"/></svg>